<svg version="1.1" xmlns="http://www.w3.org/2000/svg" style="display: block;" viewBox="0 0 2805 256" width="2805" height="256" preserveAspectRatio="none">
<path transform="translate(0,0)" fill="rgb(255,255,255)" d="M 672.708 3.80956 L 800.125 3.7949 C 801.665 5.40366 804.034 7.10156 804.979 9.12345 C 806.916 13.2694 807.852 18.2756 809.283 22.6529 L 820.021 55.0218 C 829.667 83.9505 840.273 112.727 850.15 141.476 C 850.759 143.248 850.651 145.302 851.253 147.186 C 854.803 145.907 893.341 22.5246 899.466 9.62571 C 900.205 8.07042 901.358 5.02639 903.083 4.46538 C 908.341 2.75502 1029.22 3.15038 1032.29 4.63498 C 1034.18 6.91735 1034.6 9.62444 1034.78 12.4991 C 1035.41 22.6078 1034.62 33.2215 1034.62 43.3815 L 1034.64 113.865 L 1034.65 197.932 C 1034.65 214.429 1035.13 231.14 1034.27 247.607 C 1031.63 250.363 1026.97 250.454 1023.29 250.71 C 1013.97 251.36 959.118 252.506 953.308 250.346 C 952.513 250.05 950.843 248.204 950.123 247.579 C 947.492 240.618 949.31 145.01 949.328 129.5 C 949.322 118.976 951.089 83.6382 948.808 76.1451 C 946.699 76.1154 946.935 79.5802 946.574 81.3717 C 945.69 85.7741 943.007 89.8305 941.618 94.1023 C 936.409 110.118 893.353 245.937 889.445 248.915 C 888.232 249.839 886.684 250.532 885.168 250.713 C 877.19 251.669 868.004 250.814 859.923 250.841 C 845.604 250.888 830.218 252.09 816.024 250.311 C 813.618 248.618 812.472 245.368 811.463 242.715 C 802.115 218.155 794.682 192.413 786.37 167.434 C 777.708 141.401 769.385 115.208 760.397 89.2916 C 759.01 85.2924 756.674 81.8131 755.296 77.7779 L 753.896 78.8005 L 753.923 189.602 C 753.936 208.505 755.328 228.554 753.375 247.332 C 753.002 247.924 752.545 248.424 751.973 248.829 C 747.586 251.937 685.226 251.748 677.624 250.515 C 674.955 250.082 672.925 249.559 671.332 247.339 C 669.923 236.974 670.818 225.952 670.852 215.497 L 670.831 161.475 L 670.757 62.2264 C 670.75 45.1686 670.191 27.8942 670.849 10.8566 C 670.953 8.16076 671.022 6.04228 672.708 3.80956 z"/>
<path transform="translate(0,0)" fill="rgb(255,255,255)" d="M 1172.19 3.7949 L 1244.35 3.68167 C 1256.05 3.66259 1269.16 2.50499 1280.68 4.24785 C 1281.73 4.97584 1287.31 14.5251 1288.09 16.124 C 1297.1 34.5469 1305.46 53.56 1314.67 72.0374 C 1338.36 119.584 1363.15 166.769 1385.32 215.029 C 1389.96 225.129 1398.12 236.744 1400.27 247.395 L 1398.71 249.199 C 1391.49 252.479 1318 251.238 1305.27 250.918 C 1303.65 250.878 1300.06 250.919 1298.74 250.137 C 1291.08 245.626 1283.6 213.488 1280.72 210.548 C 1280.69 210.52 1280.66 210.493 1280.63 210.466 C 1264.9 210.459 1179.5 208.808 1171.75 211.114 C 1170.78 211.403 1169.58 212.357 1168.95 213.126 C 1161.2 222.678 1162.94 242.279 1152.78 249.744 C 1145.69 251.89 1057.14 252.033 1051.86 249.636 L 1051.28 247.981 C 1053.55 243.833 1054.89 239.508 1056.93 235.28 C 1062.25 224.254 1067.8 213.318 1073.28 202.368 L 1147.54 51.9297 C 1153.16 40.6954 1165.58 11.5356 1172.19 3.7949 z M 1228.5 154.289 C 1237.36 154.339 1246.73 154.986 1255.49 153.695 C 1256.02 153.11 1256.49 152.857 1256.46 152.036 C 1256.22 146.596 1228.78 77.5784 1225.71 74.8159 C 1225.26 74.4075 1224.76 74.0876 1224.2 73.8343 C 1221.58 86.5605 1192.19 146.717 1195.1 153.408 C 1205.68 155.419 1217.74 154.337 1228.5 154.289 z"/>
<path transform="translate(0,0)" fill="rgb(180,146,101)" d="M 1567.7 5.97609 L 1593.27 5.9484 C 1599.56 16.0867 1604.56 27.5846 1609.96 38.2468 L 1640.83 99.2278 C 1665.65 148.262 1692.08 197.025 1715.13 246.893 L 1714.22 247.963 C 1706.89 249.597 1698.71 248.924 1691.22 248.849 C 1682.36 227.549 1670.15 206.724 1659.95 185.938 L 1596.5 185.938 L 1502.82 185.938 C 1493.2 207.181 1481.79 227.69 1471.93 248.849 C 1463.74 248.892 1455.55 248.831 1447.36 248.669 L 1526.74 87.9565 L 1552.77 35.1282 C 1557.56 25.4526 1561.99 15.1078 1567.7 5.97609 z M 1512.08 166.232 C 1535.55 166.536 1559.03 166.596 1582.5 166.413 L 1649.6 166.388 C 1645.31 155.005 1582.6 30.004 1580.24 28.5964 C 1573.14 39.1288 1568.01 52.4398 1562.38 63.9292 L 1529.31 131.407 C 1523.66 142.935 1518.43 155.094 1512.08 166.232 z"/>
<path transform="translate(0,0)" fill="rgb(180,146,101)" d="M 2308.15 6.13779 C 2334.77 4.98093 2361.79 5.93173 2388.45 5.93142 L 2541.81 5.94363 L 2541.7 26.0402 L 2332.53 26.04 L 2332.54 111.475 L 2525.87 111.475 L 2525.87 132.031 L 2399.5 132.031 L 2332.55 132.032 L 2332.53 228.99 L 2552.27 228.994 L 2552.29 248.885 L 2308.15 248.827 L 2308.15 6.13779 z"/>
<path transform="translate(0,0)" fill="rgb(255,255,255)" d="M 447.204 0 L 498.945 0 L 499.119 0.126667 C 502.161 2.30597 523.513 2.45113 530.04 3.84803 C 579.452 14.4222 621.815 39.8907 636.643 90.7678 C 646.057 123.431 642.258 158.485 626.065 188.373 C 603.262 229.927 548.123 252.796 501.76 253.122 C 500.536 253.131 499.313 254.93 498.808 255.846 L 498.725 256 L 452.188 256 C 450.102 252.036 443.885 253.313 439.641 252.944 C 432.142 252.242 424.684 251.161 417.295 249.705 C 376.42 241.292 349.19 227.687 323.48 192.131 C 305.799 167.68 302.435 128.852 308.396 99.354 C 319.307 45.3577 365.376 14.5459 416.908 4.27806 C 423.199 3.02451 444.44 1.85279 447.021 0.124945 L 447.204 0 z M 491.367 194.534 C 495.231 192.26 499.557 192.055 503.775 190.675 C 520.986 185.045 531.052 173.791 535.604 156.148 C 540.876 135.71 541.495 104.506 530.403 85.7236 C 522.342 72.0737 509.832 65.4921 494.855 61.6727 C 487.407 59.7732 461.714 57.8964 454.476 60.4694 C 437.091 67.9167 421.705 71.3797 413.787 91.2265 C 405.45 112.122 405.038 143.045 414.087 163.882 C 419.555 176.475 430.408 185.473 443.004 190.39 C 456.085 195.496 477.445 196.683 491.367 194.534 z"/>
<path transform="translate(0,0)" fill="rgb(255,255,255)" d="M 115.023 0 L 175.783 0 L 175.967 0.125676 C 176.097 0.212531 177.08 0.789165 177.142 0.794339 C 202.342 2.90665 222.166 5.68045 244.473 18.9982 C 259.45 27.9394 269.72 37.6255 276.317 54.8879 C 277.68 58.454 281.704 70.7319 281.778 73.534 C 267.899 77.0929 243.492 75.8158 227.708 77.7364 C 216.276 79.1275 201.183 78.0215 188.386 79.2946 C 176.739 63.1343 177.976 52.2834 153.459 49.4155 C 140.102 47.8531 121.544 46.721 109.965 54.2613 C 101.481 59.7855 103.903 69.6301 110.435 75.71 C 116.26 75.4054 124.173 80.3689 132.09 81.7707 C 182.041 90.6151 287.395 99.7712 291.635 166.747 C 294.969 219.391 229.343 251.691 185.063 252.693 C 180.731 252.939 172.796 252.229 170.803 256 L 126.397 256 C 125.464 254.711 124.915 253.661 123.218 253.348 C 117.573 252.307 110.736 253.056 104.911 252.64 C 91.9293 251.715 77.9389 249.081 65.4656 245.375 C 43.6186 238.885 19.8401 223.288 9.03398 202.605 C 5.2546 195.372 3.74175 186.905 0 179.992 L 0 168.955 C 1.69348 168.417 3.30838 167.879 4.95013 167.207 C 8.58267 165.718 89.4394 162.207 92.5798 163.632 C 96.6156 165.463 97.296 173.926 98.8651 177.712 C 103.24 188.269 112.946 195.282 123.217 199.488 C 134.915 204.278 153.014 206.057 165.197 203.007 C 171.745 201.368 178.655 197.987 184.88 195.319 C 188.408 193.807 191.14 187.047 192.55 183.517 C 190.937 154.45 152.247 155.606 129.261 150.216 C 92.5589 141.608 36.6213 133.913 17.1216 97.2732 C -11.6153 43.2766 52.9155 6.64911 98.4271 1.83902 C 102.986 1.35593 111.567 2.62714 114.851 0.13329 L 115.023 0 z"/>
<path transform="translate(0,0)" fill="rgb(180,146,101)" d="M 1841.37 0 L 1879.9 0 C 1921.99 7.60106 1946.03 12.918 1975.59 47.0896 C 1968.3 49.9791 1960.04 54.9655 1953.09 58.9069 C 1921.81 12.9768 1836.77 9.99246 1792.65 36.5187 C 1777.9 45.389 1766.46 67.5541 1777.88 82.3962 C 1794.82 104.404 1844.03 104.496 1870.01 108.933 C 1918.26 117.17 1991.34 118.12 1981.44 188.272 C 1974.71 229.163 1928.08 250.092 1891.12 253.478 C 1888.46 253.732 1887.12 254.362 1884.94 256 L 1837.28 256 C 1834.16 253.457 1829.55 253.14 1825.69 252.681 C 1797.26 249.291 1767.85 239.35 1748.56 217.135 C 1744.85 212.863 1730.84 193.856 1731.17 188.802 C 1737.39 185.011 1747.41 181.509 1754.49 179.592 C 1755.78 180.162 1769.12 207.857 1785.04 216.468 C 1821.11 235.975 1859.84 237.88 1899.69 230.497 C 1920.77 226.366 1930.3 220.768 1945.47 206.455 C 1962.88 190.022 1962.22 162.482 1941.08 149.19 C 1930.07 142.272 1914.65 140.35 1901.49 137.465 C 1868.17 128.743 1799.4 131.003 1771.91 111.648 C 1717.87 73.5984 1766.77 7.63928 1819.33 3.60792 C 1824.7 3.19554 1836.94 0.967743 1841.37 0 z"/>
<path transform="translate(0,0)" fill="rgb(180,146,101)" d="M 2122.13 0 L 2160.6 0 C 2200.56 7.48128 2227.9 13.1864 2255.32 47.027 C 2247.87 50.7873 2240.44 54.6122 2233.05 58.5014 C 2203.62 17.5139 2141.88 14.0196 2096.53 25.9637 C 2088.94 27.9639 2083.56 29.8053 2077.44 34.2274 C 2067.27 41.5775 2056.35 47.1361 2055.08 61.2137 C 2049.49 89.5108 2076.31 98.2512 2098.89 101.409 C 2117.75 104.104 2135.75 106.897 2154.71 109.49 C 2200.91 115.813 2270.48 121.389 2262.47 185.99 C 2259.73 208.161 2242.46 227.167 2223.62 237.977 C 2207.23 247.383 2187.62 251.181 2169.07 253.985 C 2168.44 254.081 2166.23 255.601 2165.71 256 L 2117.97 256 C 2113.75 252.854 2103.28 252.579 2097.57 251.504 C 2075.9 247.424 2051.36 239.37 2035.38 223.553 C 2028.89 217.123 2011.95 197.406 2011.86 188.702 C 2016.69 185.952 2030.07 180.263 2035.34 179.346 C 2038.6 181.886 2038.56 187.352 2040.47 189.844 C 2047.3 198.779 2052.44 208.035 2062.11 214.279 C 2099.29 236.685 2134.76 236.835 2178.02 231.023 C 2215.83 225.943 2265.61 184.832 2221.68 149.196 C 2214.47 143.35 2192.85 139.84 2182.83 137.598 C 2149.18 128.697 2079.75 131.078 2052.06 111.233 C 1998.84 73.0844 2048.02 7.44356 2100.02 3.59778 C 2105.55 3.18867 2117.5 0.966458 2122.13 0 z"/>
<path transform="translate(0,0)" fill="rgb(180,146,101)" d="M 2567.29 5.94831 L 2805 5.94376 L 2805 26.0402 L 2699.29 26.0402 L 2699.29 248.892 L 2676.67 248.824 L 2676.67 26.0402 L 2567.47 26.036 C 2567.09 19.3975 2567.33 12.6053 2567.29 5.94831 z"/>
</svg>